<svg width="279" height="177" viewBox="0 0 279 177" fill="none" xmlns="http://www.w3.org/2000/svg">
<path fill-rule="evenodd" clip-rule="evenodd" d="M81.9889 177C76.151 177 69.9696 174.047 65.4367 168.209L73.1977 160.929C78.074 166.835 88.7883 167.11 89.1317 161.89C89.2691 159.143 84.8048 157.563 80.8213 157.014C72.9916 155.777 65.8488 150.832 65.8488 141.56C65.8488 132.014 74.5026 127 83.4312 127C89.3378 127 95.0383 128.648 100.052 134.761L92.0163 140.942C86.9339 135.516 78.2114 135.723 78.0053 141.354C78.1427 143.69 80.6839 145.063 84.4614 145.887C93.1152 147.467 101.769 150.489 101.22 162.44C100.808 171.849 90.9174 177 81.9889 177ZM0 164.866V176.313H18.2006C27.9533 176.382 37.0879 171.505 37.0879 160.31V143.964C37.0879 132.632 27.9533 127.687 18.2006 127.687H0V144.901L12.3626 158.912V139.157H18.6126C22.7335 139.157 24.7253 141.148 24.7253 144.308V159.486C24.7253 162.646 22.8022 164.775 18.6126 164.775H17.536L17.6168 164.866H0ZM58.018 127.687H45.7241V176.313H58.018V127.687ZM133.394 161.135C130.715 167.865 119.726 166.217 119.726 160.379V143.621C119.726 137.577 130.578 136.203 133.874 142.247L143.902 138.195C139.987 129.541 132.775 127 126.8 127C117.047 127 107.432 132.632 107.432 143.621V160.379C107.432 171.437 117.047 177 126.594 177C132.707 177 140.056 173.978 144.108 166.08L133.394 161.135ZM163.005 127.687H174.201L191.577 176.313H178.39L175.231 166.56H162.25L159.228 176.313H146.041L163.005 127.687ZM168.569 141.423L164.997 155.64H172.277L168.912 141.423H168.569ZM196.895 176.313H209.189V162.096H216.401C228.145 162.096 234.121 153.511 234.121 144.857C234.121 136.272 228.214 127.687 216.332 127.687H196.895V127.737L209.189 141.972V139.157H216.332C223.483 139.09 223.74 150.385 217.104 151.137L217.222 151.273H196.93L196.895 142.948V176.313ZM253.706 176.313H241.412V151.273H261.65L261.54 151.146C268.259 150.477 268.029 139.09 260.849 139.157H253.706V142.075L241.412 127.84V127.687H260.849C272.731 127.687 278.637 136.272 278.637 144.857C278.637 153.511 272.662 162.096 260.918 162.096H253.706V176.313Z" fill="#7289DA"/>
<path fill-rule="evenodd" clip-rule="evenodd" d="M139.507 35.2754H100C97.2386 35.2754 95 37.514 95 40.2754V79.7826C95 82.5441 97.2386 84.7826 100 84.7826H139.507C142.269 84.7826 144.507 82.5441 144.507 79.7826V40.2754C144.507 37.514 142.269 35.2754 139.507 35.2754ZM100 25.2754C91.7157 25.2754 85 31.9911 85 40.2754V79.7826C85 88.0669 91.7157 94.7826 100 94.7826H132.884L135.952 90.0435L154.46 112.661L154.207 112.626L154.507 112.949V83.7246L153.933 83.909C154.307 82.598 154.507 81.2137 154.507 79.7826V40.2754C154.507 31.9911 147.792 25.2754 139.507 25.2754H100Z" fill="#7988DB"/>
<mask id="path-3-inside-1" fill="white">
<path fill-rule="evenodd" clip-rule="evenodd" d="M124.493 15C124.493 6.71573 131.208 0 139.493 0H179C187.284 0 194 6.71573 194 15V54.5072C194 55.6888 193.863 56.8384 193.605 57.9411V82.9348L180.997 69.3754C180.344 69.4624 179.677 69.5072 179 69.5072H139.493C131.208 69.5072 124.493 62.7915 124.493 54.5072V15ZM134 35.28H139.5C142.261 35.28 144.5 37.5186 144.5 40.28V59.78H139C136.239 59.78 134 57.5415 134 54.78V35.28Z"/>
</mask>
<path fill-rule="evenodd" clip-rule="evenodd" d="M124.493 15C124.493 6.71573 131.208 0 139.493 0H179C187.284 0 194 6.71573 194 15V54.5072C194 55.6888 193.863 56.8384 193.605 57.9411V82.9348L180.997 69.3754C180.344 69.4624 179.677 69.5072 179 69.5072H139.493C131.208 69.5072 124.493 62.7915 124.493 54.5072V15ZM134 35.28H139.5C142.261 35.28 144.5 37.5186 144.5 40.28V59.78H139C136.239 59.78 134 57.5415 134 54.78V35.28Z" fill="#5165D5"/>
<path d="M193.605 57.9411L183.869 55.6608L183.605 56.7857V57.9411H193.605ZM193.605 82.9348L186.282 89.7442L203.605 108.375V82.9348H193.605ZM180.997 69.3754L188.321 62.566L184.801 58.7812L179.678 59.4628L180.997 69.3754ZM134 35.28V25.28H124V35.28H134ZM144.5 59.78V69.78H154.5V59.78H144.5ZM139.493 -10C125.686 -10 114.493 1.19288 114.493 15H134.493C134.493 12.2386 136.731 10 139.493 10V-10ZM179 -10H139.493V10H179V-10ZM204 15C204 1.19288 192.807 -10 179 -10V10C181.761 10 184 12.2386 184 15H204ZM204 54.5072V15H184V54.5072H204ZM203.342 60.2214C203.774 58.3766 204 56.462 204 54.5072H184C184 54.9155 183.953 55.3001 183.869 55.6608L203.342 60.2214ZM203.605 82.9348V57.9411H183.605V82.9348H203.605ZM173.674 76.1849L186.282 89.7442L200.928 76.1253L188.321 62.566L173.674 76.1849ZM179 79.5072C180.119 79.5072 181.227 79.433 182.316 79.2881L179.678 59.4628C179.461 59.4917 179.235 59.5072 179 59.5072V79.5072ZM139.493 79.5072H179V59.5072H139.493V79.5072ZM114.493 54.5072C114.493 68.3144 125.686 79.5072 139.493 79.5072V59.5072C136.731 59.5072 134.493 57.2687 134.493 54.5072H114.493ZM114.493 15V54.5072H134.493V15H114.493ZM139.5 25.28H134V45.28H139.5V25.28ZM154.5 40.28C154.5 31.9958 147.784 25.28 139.5 25.28V45.28C136.739 45.28 134.5 43.0415 134.5 40.28H154.5ZM154.5 59.78V40.28H134.5V59.78H154.5ZM139 69.78H144.5V49.78H139V69.78ZM124 54.78C124 63.0643 130.716 69.78 139 69.78V49.78C141.761 49.78 144 52.0186 144 54.78H124ZM124 35.28V54.78H144V35.28H124Z" fill="#5165D4" mask="url(#path-3-inside-1)"/>
</svg>
