<svg width="490" height="105" viewBox="0 0 490 105" fill="none" xmlns="http://www.w3.org/2000/svg">
<path fill-rule="evenodd" clip-rule="evenodd" d="M442.969 83.6441V52.5H468.941L468.708 52.2361C476.336 50.7008 475.814 37.3496 467.143 37.4299H458.259V40.3945L443.056 23.1641H467.143C481.922 23.1641 489.268 33.8421 489.268 44.5201C489.268 55.2834 481.836 65.9614 467.229 65.9614H458.259V83.6441H442.969ZM387.6 52.5V83.6441H402.891V65.9614H411.86C426.468 65.9614 433.9 55.2834 433.9 44.5201C433.9 33.8421 426.553 23.1641 411.775 23.1641H387.6V23.8477L402.891 41.1773V37.4299H411.775C420.67 37.3475 420.989 51.3991 412.732 52.3309L412.881 52.5H387.6ZM244.683 84.4984C237.422 84.4984 229.734 80.8251 224.096 73.5641L233.748 64.5092C239.814 71.8556 253.14 72.1973 253.567 65.7051C253.738 62.2882 248.185 60.3234 243.23 59.6401C233.492 58.1024 224.608 51.9519 224.608 40.4197C224.608 28.5458 235.372 22.3099 246.477 22.3099C253.823 22.3099 260.913 24.36 267.149 31.9628L257.155 39.6509C250.833 32.9024 239.984 33.1587 239.728 40.1634C239.899 43.0678 243.06 44.7763 247.758 45.8014C258.521 47.7662 269.285 51.5248 268.601 66.3885C268.089 78.0916 255.788 84.4984 244.683 84.4984ZM142.707 69.4068V83.6441H165.345C177.475 83.7295 188.836 77.6645 188.836 63.7404V43.4095C188.836 29.3146 177.475 23.1641 165.345 23.1641H142.707V44.5741L158.084 62.0005V37.4299H165.857C170.983 37.4299 173.46 39.9072 173.46 43.8367V62.7153C173.46 66.6448 171.068 69.2929 165.857 69.2929H164.518L164.619 69.4068H142.707ZM214.868 23.1641H199.578V83.6441H214.868V23.1641ZM308.618 64.7655C305.287 73.137 291.619 71.0868 291.619 63.8258V42.9824C291.619 35.4651 305.116 33.7567 309.216 41.2739L321.688 36.2339C316.819 25.4706 307.85 22.3099 300.418 22.3099C288.288 22.3099 276.328 29.3146 276.328 42.9824V63.8258C276.328 77.579 288.288 84.4984 300.161 84.4984C307.764 84.4984 316.904 80.7397 321.944 70.916L308.618 64.7655ZM345.449 23.1641H359.373L380.985 83.6441H364.584L360.654 71.514H344.509L340.75 83.6441H324.349L345.449 23.1641ZM352.368 40.2489L347.926 57.9316H356.981L352.795 40.2489H352.368Z" fill="#7289DA"/>
<rect x="44.1525" y="31.6949" width="68.3051" height="68.3051" rx="10" stroke="#7988DB" stroke-width="10"/>
<g style="mix-blend-mode:multiply">
<rect x="5" y="5" width="68.3051" height="68.3051" rx="10" stroke="#8A9CFE" stroke-width="10"/>
</g>
</svg>
