<svg width="372" height="225" viewBox="0 0 372 225" fill="none" xmlns="http://www.w3.org/2000/svg">
<path d="M31.3636 202C52.6364 202 66.1364 188.909 66.1364 167.091C66.1364 145.273 52.6364 132.182 31.0909 132.182H4.5V202H31.3636ZM23.4545 185.909V148.273H30.1364C41.0455 148.273 47.0455 152.5 47.0455 167.091C47.0455 181.682 41.0455 185.909 30.6818 185.909H23.4545ZM71.339 202H90.1572V149.636H71.339V202ZM80.7481 144.182C85.8617 144.182 90.0208 140.33 90.0208 135.591C90.0208 130.852 85.8617 127 80.7481 127C75.6344 127 71.4753 130.852 71.4753 135.591C71.4753 140.33 75.6344 144.182 80.7481 144.182ZM143.769 166.682C143.292 155.602 134.087 148.955 118.951 148.955C103.985 148.955 94.7461 155.091 94.8143 166C94.7461 174.25 100.098 179.534 110.769 181.409L120.042 183.045C124.132 183.795 125.973 184.886 126.042 186.864C125.973 189.045 123.485 190.273 120.042 190.273C115.78 190.273 112.78 188.432 112.269 185.091H93.587C94.6098 195.83 103.882 202.955 119.905 202.955C134.394 202.955 145.064 195.898 145.132 184.682C145.064 176.943 139.882 172.443 129.178 170.5L118.542 168.591C114.553 167.875 113.428 166.443 113.496 164.909C113.428 162.727 116.121 161.5 119.36 161.5C123.076 161.5 126.178 163.477 126.451 166.682H143.769ZM173.73 202.955C189.241 202.955 198.753 194.057 198.957 180.182H181.503C181.094 185.67 178.128 188.636 174.003 188.636C169.06 188.636 165.821 184.409 165.821 175.818C165.821 167.227 169.06 163 174.003 163C178.162 163 180.991 165.966 181.503 171.455H198.957C198.855 157.818 189.139 148.955 173.73 148.955C156.685 148.955 146.594 159.864 146.594 175.955C146.594 192.045 156.685 202.955 173.73 202.955ZM217.472 202.818C224.291 202.818 229.438 200.5 232.609 194.636H233.018V202H250.609V166.136C250.609 156.455 241.438 148.955 226.472 148.955C210.825 148.955 203.12 157.136 202.472 166.682H219.791C220.234 163.443 222.62 161.909 226.2 161.909C229.472 161.909 231.791 163.409 231.791 166.136V166.273C231.791 169.307 228.45 170.261 219.654 170.909C208.847 171.693 200.427 176.057 200.427 187.545C200.427 197.977 207.45 202.818 217.472 202.818ZM223.609 190.955C220.404 190.955 218.154 189.386 218.154 186.455C218.154 183.761 220.063 181.682 224.427 181C227.427 180.523 229.95 179.909 231.927 179.091V183.455C231.927 188.227 227.87 190.955 223.609 190.955ZM255.76 221.636H274.578V193.409H274.851C277.033 198.727 282.078 202.682 289.442 202.682C300.624 202.682 310.033 193.955 310.033 175.818C310.033 156.864 299.942 148.955 289.578 148.955C281.806 148.955 276.897 153.455 274.851 158.773H274.442V149.636H255.76V221.636ZM274.169 175.818C274.169 168.045 277.306 163.409 282.488 163.409C287.669 163.409 290.669 168.045 290.669 175.818C290.669 183.591 287.669 188.227 282.488 188.227C277.306 188.227 274.169 183.455 274.169 175.818ZM314.076 221.636H332.895V193.409H333.167C335.349 198.727 340.395 202.682 347.758 202.682C358.94 202.682 368.349 193.955 368.349 175.818C368.349 156.864 358.258 148.955 347.895 148.955C340.122 148.955 335.213 153.455 333.167 158.773H332.758V149.636H314.076V221.636ZM332.486 175.818C332.486 168.045 335.622 163.409 340.804 163.409C345.986 163.409 348.986 168.045 348.986 175.818C348.986 183.591 345.986 188.227 340.804 188.227C335.622 188.227 332.486 183.455 332.486 175.818Z" fill="#8A9CFE"/>
<rect x="169" y="35" width="78" height="78" rx="10" stroke="#7988DB" stroke-width="10"/>
<g style="mix-blend-mode:multiply">
<rect x="125" y="5" width="78" height="78" rx="10" stroke="#8A9CFE" stroke-width="10"/>
</g>
</svg>
